<svg width="21" height="21" viewBox="0 0 21 21" fill="none" xmlns="http://www.w3.org/2000/svg">
<circle cx="10.5" cy="10.5" r="10" fill="white" stroke="#7A7175"/>
<path d="M14.9422 16.8258C14.8143 16.8258 14.6864 16.7785 14.5855 16.6774L10.1972 12.2792C9.48375 11.5641 9.48375 10.3903 10.1972 9.6753L14.5855 5.27709C14.7807 5.08146 15.1037 5.08146 15.2989 5.27709C15.4941 5.47272 15.4941 5.79651 15.2989 5.99214L10.9106 10.3903C10.5876 10.7141 10.5876 11.2403 10.9106 11.5641L15.2989 15.9623C15.4941 16.1579 15.4941 16.4817 15.2989 16.6774C15.198 16.7718 15.0701 16.8258 14.9422 16.8258Z" fill="#7A7175"/>
<path d="M10.096 16.8258C9.96813 16.8258 9.84025 16.7785 9.7393 16.6774L5.35099 12.2792C4.63756 11.5641 4.63756 10.3903 5.35099 9.6753L9.7393 5.27709C9.93448 5.08146 10.2575 5.08146 10.4527 5.27709C10.6479 5.47272 10.6479 5.79651 10.4527 5.99214L6.06443 10.3903C5.74137 10.7141 5.74137 11.2403 6.06443 11.5641L10.4527 15.9623C10.6479 16.1579 10.6479 16.4817 10.4527 16.6774C10.3518 16.7718 10.2239 16.8258 10.096 16.8258Z" fill="#7A7175"/>
</svg>