<svg width="191" height="191" viewBox="0 0 191 191" fill="none" xmlns="http://www.w3.org/2000/svg">
<g clip-path="url(#clip0_140_8553)">
<path d="M41.0445 5.54998C42.5816 5.54998 43.8277 4.30758 43.8277 2.77499C43.8277 1.24241 42.5816 0 41.0445 0C39.5073 0 38.2612 1.24241 38.2612 2.77499C38.2612 4.30758 39.5073 5.54998 41.0445 5.54998Z" fill="url(#paint0_linear_140_8553)"/>
<path d="M46.768 10.263C47.5805 10.0719 48.0836 9.26021 47.8919 8.45016C47.7001 7.64012 46.8861 7.13844 46.0736 7.32963C45.2612 7.52082 44.758 8.33247 44.9497 9.14252C45.1415 9.95256 45.9556 10.4542 46.768 10.263Z" fill="url(#paint1_linear_140_8553)"/>
<path d="M47.6223 40.0746C47.0964 39.372 46.5239 38.7053 45.9086 38.0789V38.0789C45.3164 37.47 44.621 36.8184 43.8044 36.1266V36.1466C43.8047 36.4531 43.7358 36.7557 43.6029 37.032C43.4699 37.3083 43.2764 37.5512 43.0365 37.7428C43.5718 38.1524 43.9559 38.7272 44.1288 39.3775C44.3016 40.0278 44.2534 40.7169 43.9918 41.337C43.7302 41.9571 43.2698 42.4733 42.6827 42.8048C42.0956 43.1364 41.4148 43.2646 40.7469 43.1695C40.0789 43.0743 39.4614 42.7612 38.9909 42.279C38.5204 41.7968 38.2234 41.1728 38.1464 40.5044C38.0694 39.8361 38.2166 39.1611 38.5652 38.5851C38.9137 38.009 39.4439 37.5644 40.0728 37.3207C39.8814 37.0479 39.7597 36.7327 39.7182 36.4023C39.6768 36.072 39.7168 35.7365 39.8349 35.4251C39.9529 35.1137 40.1455 34.8357 40.3957 34.6154C40.646 34.395 40.9465 34.2388 41.271 34.1605C39.2308 32.6941 36.6736 31.1001 33.468 29.4036C33.3027 29.7105 33.0761 29.9804 32.8022 30.1966C32.5283 30.4129 32.2128 30.5709 31.8753 30.6609C31.5378 30.7509 31.1853 30.7711 30.8397 30.7201C30.4941 30.6691 30.1626 30.5481 29.8657 30.3644C29.5688 30.1808 29.3127 29.9385 29.1134 29.6525C28.914 29.3664 28.7755 29.0427 28.7064 28.7012C28.6373 28.3597 28.6391 28.0078 28.7116 27.667C28.7842 27.3262 28.926 27.0039 29.1283 26.7199C17.7943 18.4477 18.423 7.28653 18.423 7.28653C11.1657 25.0636 12.4777 39.8398 15.6631 50.2416C16.2511 49.6066 16.9886 49.1277 17.8089 48.8481C18.6292 48.5685 19.5064 48.4971 20.3612 48.6403C21.2161 48.7835 22.0218 49.1369 22.7053 49.6684C23.3889 50.1999 23.9289 50.8928 24.2765 51.6846C24.6241 52.4764 24.7684 53.342 24.6963 54.2033C24.6242 55.0646 24.338 55.8945 23.8635 56.6178C23.3891 57.3412 22.7414 57.9353 21.9789 58.3465C21.2164 58.7577 20.3632 58.973 19.4963 58.9729C19.3762 58.9729 19.256 58.9682 19.1375 58.9602C19.942 60.5787 20.8316 62.1537 21.8027 63.6786C23.175 65.8252 24.1514 66.9581 24.1514 66.9581L42.8486 66.9201C43.0074 66.68 43.3403 65.1028 43.5308 56.6069C43.6769 50.0807 46.4067 45.8805 49.3105 43.5788C49.3105 43.5778 49.2629 42.2892 47.6223 40.0746Z" fill="url(#paint2_linear_140_8553)"/>
<path d="M15.3099 40.636C15.3182 40.5945 15.3346 40.555 15.3582 40.5197C15.3818 40.4845 15.4122 40.4543 15.4475 40.4308C15.4828 40.4072 15.5225 40.3909 15.5642 40.3826C15.6058 40.3744 15.6487 40.3744 15.6904 40.3827L25.0324 42.2422C22.5868 38.4958 20.7271 34.5341 19.4887 30.4336C18.1333 25.9485 17.7893 22.116 17.7422 19.694C17.6893 17.0605 17.9539 15.5097 17.9645 15.4448C17.9686 15.4004 17.9819 15.3574 18.0035 15.3185C18.0251 15.2795 18.0546 15.2454 18.09 15.2184C18.1255 15.1913 18.1662 15.1719 18.2095 15.1613C18.2529 15.1507 18.298 15.1492 18.342 15.1568C18.386 15.1644 18.4279 15.1811 18.4651 15.2057C18.5023 15.2303 18.5341 15.2623 18.5583 15.2997C18.5825 15.3371 18.5986 15.3791 18.6057 15.423C18.6129 15.467 18.6108 15.5119 18.5996 15.555C18.5964 15.5703 18.3318 17.1291 18.3879 19.713C18.4408 22.0965 18.7891 25.8646 20.1275 30.2827C21.8528 35.9778 25.4939 43.5719 33.2588 51.0917V38.4035C33.2621 38.3201 33.2977 38.2414 33.358 38.1836C33.4184 38.1258 33.4988 38.0936 33.5824 38.0936C33.666 38.0936 33.7464 38.1258 33.8067 38.1836C33.8671 38.2414 33.9026 38.3201 33.906 38.4035V51.7117C36.6236 54.2878 39.8456 56.8491 43.6354 59.3154C43.7066 59.3627 43.7561 59.4363 43.7729 59.52C43.7898 59.6037 43.7727 59.6906 43.7254 59.7618C43.6779 59.8337 43.6039 59.8839 43.5194 59.9015C43.4349 59.9191 43.3468 59.9026 43.2745 59.8557C39.6528 57.4988 36.3892 54.9574 33.4837 52.2315C33.4311 52.2181 33.3827 52.1918 33.3431 52.1549C33.3034 52.118 33.2737 52.0718 33.2567 52.0204C30.9019 49.8003 28.7438 47.3816 26.8064 44.7914C26.3675 44.2018 25.9441 43.6062 25.5362 43.0047L15.5639 41.0159C15.4798 40.999 15.4058 40.9495 15.3582 40.8783C15.3106 40.8071 15.2932 40.72 15.3099 40.636V40.636Z" fill="url(#paint3_linear_140_8553)"/>
<path d="M180.118 107.662C180.118 152.936 143.911 189.776 98.7933 190.97C98.0421 190.99 97.2887 191 96.5329 191C95.5687 191 94.6088 190.984 93.6534 190.951C92.4926 190.912 91.3382 190.849 90.1901 190.764C69.3045 189.201 50.5597 179.987 36.7674 165.923C35.0206 164.143 33.3549 162.285 31.7704 160.35C29.9372 158.114 28.2217 155.784 26.631 153.37C26.6215 153.355 26.6114 153.341 26.6014 153.325C18.8943 141.628 14.2848 128.174 13.2028 114.22C13.1764 113.884 13.152 113.548 13.1298 113.211C13.0091 111.376 12.9485 109.526 12.9478 107.661C12.9468 104.021 13.1828 100.385 13.6543 96.7759C15.0453 86.1245 18.5021 75.8448 23.8319 66.5101C29.775 56.1034 37.8876 47.0886 47.6224 40.0741C61.3735 30.1645 78.2692 24.3243 96.5329 24.3243C142.696 24.3248 180.118 61.636 180.118 107.662Z" fill="url(#paint4_linear_140_8553)"/>
<path d="M93.6519 85.2316V190.951C92.4911 190.912 91.3367 190.849 90.1886 190.764C69.303 189.201 50.5582 179.987 36.7659 165.923C35.0202 164.143 33.355 162.285 31.7705 160.35V85.2316C31.7705 84.9313 31.8299 84.6338 31.9452 84.3564C32.0605 84.0789 32.2295 83.8267 32.4425 83.6144C32.6555 83.402 32.9085 83.2336 33.1868 83.1187C33.4652 83.0038 33.7635 82.9447 34.0647 82.9447H91.3598C91.9678 82.9452 92.5508 83.1863 92.9807 83.6151C93.4105 84.0439 93.6519 84.6254 93.6519 85.2316V85.2316Z" fill="white"/>
<path opacity="0.43" d="M90.1898 115.331V190.764C69.3042 189.201 50.5594 179.987 36.7671 165.923V123.962L43.79 129.898L54.8837 120.717L67.2333 125.096L81.6189 111.21L90.1898 115.331Z" fill="url(#paint5_linear_140_8553)"/>
<path d="M93.2547 77.7942H32.1687C31.4415 77.7941 30.7214 77.9369 30.0495 78.2143C29.3776 78.4917 28.7671 78.8984 28.2529 79.4111C27.7387 79.9237 27.3307 80.5324 27.0524 81.2023C26.7741 81.8721 26.6309 82.5901 26.6309 83.3152V153.372C28.2216 155.785 29.937 158.114 31.7702 160.35V85.2316C31.7702 84.9313 31.8296 84.6338 31.9449 84.3564C32.0602 84.0789 32.2292 83.8267 32.4422 83.6144C32.6553 83.402 32.9082 83.2336 33.1865 83.1187C33.4649 83.0038 33.7632 82.9447 34.0644 82.9447H46.5225L49.7418 85.8073H76.0282L78.8987 82.9447H91.3584C91.9667 82.9449 92.5499 83.1859 92.98 83.6147C93.41 84.0436 93.6516 84.6252 93.6516 85.2316V190.951C94.6074 190.984 95.5672 191.001 96.5311 191C97.2862 191 98.0396 190.99 98.7915 190.97V83.3152C98.7915 81.851 98.2082 80.4468 97.1698 79.4114C96.1315 78.3761 94.7232 77.7943 93.2547 77.7942V77.7942Z" fill="#5572FF"/>
<g opacity="0.43">
<g opacity="0.43">
<path opacity="0.43" d="M44.5457 166.466H43.0342V163.653H44.5457V166.466ZM44.5457 160.841H43.0342V158.028H44.5457V160.841ZM44.5457 155.215H43.0342V152.402H44.5457V155.215ZM44.5457 149.589H43.0342V146.776H44.5457V149.589ZM44.5457 143.963H43.0342V141.15H44.5457V143.963ZM44.5457 138.337H43.0342V135.524H44.5457V138.337ZM44.5457 132.711H43.0342V129.898H44.5457V132.711Z" fill="url(#paint6_linear_140_8553)"/>
</g>
<g opacity="0.43">
<path opacity="0.43" d="M55.6394 167.046H54.1279V165.723H55.6394V167.046ZM55.6394 162.91H54.1279V160.097H55.6394V162.91ZM55.6394 157.284H54.1279V154.471H55.6394V157.284ZM55.6394 151.658H54.1279V148.847H55.6394V151.658ZM55.6394 146.032H54.1279V143.219H55.6394V146.032ZM55.6394 140.406H54.1279V137.593H55.6394V140.406ZM55.6394 134.78H54.1279V131.967H55.6394V134.78ZM55.6394 129.154H54.1279V126.342H55.6394V129.154ZM55.6394 123.529H54.1279V120.716H55.6394V123.529Z" fill="url(#paint7_linear_140_8553)"/>
</g>
<g opacity="0.43">
<path opacity="0.43" d="M67.989 167.046H66.4775V164.48H67.989V167.046ZM67.989 161.667H66.4775V158.854H67.989V161.667ZM67.989 156.041H66.4775V153.227H67.989V156.041ZM67.989 150.415H66.4775V147.602H67.989V150.415ZM67.989 144.789H66.4775V141.976H67.989V144.789ZM67.989 139.163H66.4775V136.35H67.989V139.163ZM67.989 133.537H66.4775V130.724H67.989V133.537ZM67.989 127.911H66.4775V125.098H67.989V127.911Z" fill="url(#paint8_linear_140_8553)"/>
</g>
<g opacity="0.43">
<path opacity="0.43" d="M82.22 167.046H80.7085V166.54H82.22V167.046ZM82.22 163.727H80.7085V160.914H82.22V163.727ZM82.22 158.101H80.7085V155.288H82.22V158.101ZM82.22 152.475H80.7085V149.662H82.22V152.475ZM82.22 146.849H80.7085V144.036H82.22V146.849ZM82.22 141.223H80.7085V138.41H82.22V141.223ZM82.22 135.597H80.7085V132.785H82.22V135.597ZM82.22 129.972H80.7085V127.16H82.22V129.972ZM82.22 124.346H80.7085V121.533H82.22V124.346ZM82.22 118.72H80.7085V115.907H82.22V118.72ZM82.22 113.094H80.7085V110.281H82.22V113.094Z" fill="url(#paint9_linear_140_8553)"/>
</g>
</g>
<path d="M43.7429 130.917L36.7671 123.962L37.8361 122.896L43.8376 128.88L54.7318 119.862L67.0259 124.225L81.3146 109.35L90.1903 113.997L89.4875 115.331L81.6189 111.212L67.4408 125.972L55.0356 121.569L43.7429 130.917Z" fill="#4588F2"/>
<path d="M43.7904 133.238C45.64 133.238 47.1394 131.743 47.1394 129.898C47.1394 128.054 45.64 126.559 43.7904 126.559C41.9408 126.559 40.4414 128.054 40.4414 129.898C40.4414 131.743 41.9408 133.238 43.7904 133.238Z" fill="#FF858B"/>
<path d="M57.2517 123.077C58.5596 121.773 58.5596 119.658 57.2517 118.354C55.9439 117.05 53.8234 117.05 52.5155 118.354C51.2077 119.658 51.2077 121.773 52.5155 123.077C53.8234 124.38 55.9439 124.38 57.2517 123.077Z" fill="#FF858B"/>
<path d="M67.2337 128.437C69.0833 128.437 70.5827 126.942 70.5827 125.098C70.5827 123.254 69.0833 121.759 67.2337 121.759C65.3842 121.759 63.8848 123.254 63.8848 125.098C63.8848 126.942 65.3842 128.437 67.2337 128.437Z" fill="#FF858B"/>
<path d="M81.4666 113.62C83.3162 113.62 84.8156 112.125 84.8156 110.281C84.8156 108.437 83.3162 106.942 81.4666 106.942C79.6171 106.942 78.1177 108.437 78.1177 110.281C78.1177 112.125 79.6171 113.62 81.4666 113.62Z" fill="#FF858B"/>
<path d="M187.021 92.6791C186.106 91.6903 184.958 90.9445 183.68 90.5091C182.403 90.0737 181.037 89.9625 179.706 90.1854C178.375 90.4083 177.121 90.9584 176.056 91.7859C174.992 92.6135 174.151 93.6924 173.61 94.9252C173.068 96.158 172.844 97.5059 172.956 98.847C173.068 100.188 173.514 101.48 174.252 102.607C174.991 103.733 176 104.658 177.187 105.298C178.374 105.939 179.702 106.274 181.052 106.274C181.24 106.274 181.426 106.268 181.611 106.255C177.588 114.314 173.803 118.708 173.803 118.708C173.803 118.708 161.968 132.082 143.241 137.756L137.186 132.869L144.689 118.649C144.438 118.275 143.923 115.819 143.627 102.591C143.399 92.4279 139.149 85.8875 134.626 82.3031C134.626 82.3031 134.773 78.3873 141.616 72.0986C142.11 71.6448 142.639 71.1792 143.204 70.7018C143.204 70.7124 143.204 70.7224 143.204 70.733C143.203 71.2101 143.311 71.6811 143.518 72.1113C143.725 72.5414 144.026 72.9196 144.4 73.2177C143.566 73.856 142.969 74.7517 142.7 75.7646C142.432 76.7775 142.507 77.8506 142.915 78.8161C143.323 79.7816 144.04 80.5852 144.955 81.1011C145.87 81.6171 146.93 81.8163 147.97 81.6677C149.01 81.5191 149.972 81.031 150.704 80.2798C151.437 79.5286 151.899 78.5565 152.018 77.5156C152.138 76.4747 151.908 75.4236 151.365 74.5267C150.822 73.6297 149.996 72.9375 149.017 72.5582C149.315 72.1334 149.504 71.6425 149.569 71.1281C149.633 70.6137 149.571 70.0914 149.387 69.6065C149.204 69.1216 148.904 68.6887 148.514 68.3454C148.125 68.0021 147.657 67.7588 147.152 67.6366C150.327 65.3534 154.31 62.8681 159.302 60.2298C159.558 60.71 159.91 61.1326 160.337 61.4715C160.763 61.8104 161.255 62.0584 161.782 62.2C162.308 62.3415 162.859 62.3738 163.398 62.2947C163.938 62.2155 164.455 62.0267 164.919 61.74C165.382 61.4532 165.782 61.0746 166.093 60.6276C166.403 60.1806 166.618 59.6748 166.725 59.1414C166.832 58.6081 166.827 58.0586 166.712 57.527C166.597 56.9955 166.373 56.4931 166.055 56.0512C183.704 43.1704 182.726 25.7912 182.726 25.7912C194.024 53.472 191.983 76.4814 187.021 92.6791Z" fill="url(#paint10_linear_140_8553)"/>
<path d="M187.571 77.7214C187.545 77.5907 187.467 77.4758 187.356 77.4019C187.245 77.328 187.109 77.3011 186.978 77.3272L172.432 80.222C176.239 74.386 179.135 68.2197 181.064 61.835C183.174 54.846 183.71 48.8834 183.787 45.1117C183.871 41.0112 183.459 38.5955 183.441 38.4948C183.418 38.3635 183.344 38.2467 183.235 38.17C183.125 38.0933 182.99 38.063 182.858 38.0858C182.727 38.1086 182.61 38.1826 182.533 38.2916C182.456 38.4005 182.425 38.5355 182.448 38.6668C182.453 38.6905 182.865 41.1178 182.779 45.1412C182.699 48.8523 182.154 54.7204 180.07 61.5996C177.384 70.4676 171.714 82.293 159.623 94.0019V74.2446C159.627 74.176 159.617 74.1073 159.594 74.0426C159.571 73.9779 159.535 73.9187 159.487 73.8685C159.44 73.8184 159.383 73.7784 159.32 73.7511C159.257 73.7238 159.189 73.7097 159.12 73.7097C159.051 73.7097 158.983 73.7238 158.919 73.7511C158.856 73.7784 158.799 73.8184 158.752 73.8685C158.705 73.9187 158.669 73.9779 158.646 74.0426C158.622 74.1073 158.613 74.176 158.617 74.2446V94.967C154.383 98.9773 149.368 102.967 143.467 106.808C143.412 106.844 143.364 106.891 143.328 106.946C143.291 107 143.265 107.062 143.252 107.126C143.239 107.191 143.239 107.257 143.252 107.322C143.264 107.387 143.29 107.448 143.326 107.503C143.401 107.614 143.516 107.693 143.647 107.72C143.779 107.747 143.916 107.722 144.029 107.649C149.668 103.979 154.749 100.022 159.271 95.7765C159.353 95.7551 159.428 95.7134 159.49 95.6552C159.552 95.597 159.598 95.5242 159.624 95.4435C163.393 91.8705 166.741 88.1174 169.668 84.1842C170.351 83.2668 171.01 82.3395 171.645 81.4023L187.175 78.3118C187.306 78.2857 187.421 78.2089 187.496 78.0981C187.57 77.9874 187.597 77.8519 187.571 77.7214V77.7214Z" fill="url(#paint11_linear_140_8553)"/>
<path d="M138.643 129.009L133.314 134.321L143.55 144.527L148.878 139.214L138.643 129.009Z" fill="#3E51FF"/>
<path d="M183.515 179.016L183.491 179.039C182.695 179.834 181.749 180.464 180.708 180.894C179.666 181.324 178.55 181.546 177.424 181.546C176.297 181.546 175.181 181.324 174.14 180.894C173.098 180.464 172.152 179.834 171.356 179.039L145.916 153.676L152.008 147.602L158.053 141.575L183.491 166.939C185.097 168.54 186.001 170.709 186.005 172.973C186.01 175.236 185.114 177.409 183.515 179.016V179.016Z" fill="#FFD85A"/>
<path d="M158.055 141.575L155.863 143.761L152.01 147.602L145.965 153.629L145.918 153.676L138.948 146.631C138.483 145.943 138.273 145.115 138.353 144.29C138.433 143.464 138.799 142.692 139.387 142.106L142.943 138.561L146.452 135.062C146.457 135.056 146.463 135.051 146.468 135.046C147.142 134.382 148.052 134.012 148.999 134.014C149.946 134.017 150.854 134.394 151.523 135.062L158.055 141.575Z" fill="#5C6CFF"/>
<path d="M138.41 75.4097C138.013 74.9784 137.605 74.554 137.186 74.1364C120.919 57.9181 94.5466 57.9181 78.2796 74.1364C62.0126 90.3547 62.0132 116.65 78.2796 132.869C94.5461 149.087 120.92 149.087 137.186 132.869C138.083 131.974 138.932 131.049 139.731 130.094C153.031 114.223 152.59 90.7795 138.41 75.4097ZM131.265 126.966C118.268 139.924 97.1959 139.924 84.1996 126.966C71.2033 114.008 71.2022 92.9973 84.1996 80.0394C97.197 67.0815 118.268 67.081 131.266 80.0394C144.263 92.9978 144.263 114.007 131.266 126.966H131.265Z" fill="#5C6CFF"/>
<path opacity="0.67" d="M131.266 80.0394C144.262 92.9978 144.262 114.007 131.266 126.966C118.269 139.924 97.1968 139.924 84.2 126.966C71.2031 114.007 71.2026 92.9973 84.2 80.0394C97.1974 67.0815 118.269 67.081 131.266 80.0394Z" fill="url(#paint12_radial_140_8553)"/>
<path opacity="0.11" d="M98.793 187.399V190.97C98.0418 190.99 97.2884 191 96.5326 191C95.5684 191 94.6085 190.984 93.6531 190.951C92.4923 190.912 91.3379 190.849 90.1898 190.764C69.3042 189.201 50.5594 179.987 36.7671 165.923C35.0203 164.143 33.3546 162.285 31.7701 160.35C29.9369 158.114 28.2214 155.784 26.6307 153.37C26.6212 153.355 26.6111 153.341 26.6011 153.325L26.6349 146.848C26.6349 146.848 50.5948 187.399 98.793 187.399Z" fill="black"/>
<path d="M15.5807 95.1486C15.5807 95.1486 14.8292 95.6937 13.6543 96.7775C13.1828 100.387 12.9468 104.023 12.9478 107.662C12.9478 109.527 13.0084 111.377 13.1298 113.212C13.152 113.549 13.1764 113.886 13.2028 114.222C13.5716 118.958 14.3468 123.653 15.5198 128.257C27.0433 127.149 31.3502 123.016 31.3502 123.016C31.3502 123.016 35.3088 122.192 40.3074 116.064C39.616 115.812 38.9905 115.408 38.4773 114.882C37.9641 114.355 37.5765 113.721 37.3433 113.024C37.11 112.328 37.0372 111.589 37.1301 110.86C37.2231 110.132 37.4794 109.434 37.8801 108.819C38.2808 108.203 38.8156 107.685 39.4446 107.304C40.0736 106.922 40.7808 106.687 41.5135 106.616C42.2462 106.545 42.9856 106.639 43.6767 106.892C44.3678 107.145 44.9929 107.55 45.5055 108.076C45.8717 107.387 46.2374 106.666 46.6026 105.913C54.0304 90.5779 63.3845 95.7944 63.5751 95.9021C63.2803 95.6905 40.517 79.4294 15.5807 95.1486ZM33.2263 116.42C33.1531 116.834 32.9586 117.217 32.6671 117.52C32.3757 117.824 32.0005 118.034 31.589 118.125C31.1775 118.216 30.7482 118.184 30.3554 118.032C29.9625 117.879 29.6237 117.614 29.3819 117.27C29.1401 116.926 29.006 116.518 28.9967 116.098C28.9874 115.678 29.1033 115.264 29.3297 114.91C29.556 114.555 29.8827 114.276 30.2685 114.106C30.6542 113.937 31.0817 113.885 31.4968 113.958C32.0535 114.056 32.5484 114.37 32.8728 114.832C33.1971 115.294 33.3243 115.865 33.2263 116.42V116.42Z" fill="url(#paint13_linear_140_8553)"/>
<path d="M54.8861 94.584C54.8603 94.6732 54.8 94.7485 54.7186 94.7934C54.6371 94.8383 54.5411 94.8491 54.4516 94.8235C54.4273 94.8156 53.0936 94.441 50.8121 94.2959C48.6983 94.1629 45.316 94.2067 41.2039 95.1723C40.565 95.3222 39.8983 95.4981 39.2039 95.7C39.1647 95.7367 39.1175 95.7638 39.066 95.7793C39.0145 95.7948 38.9601 95.7981 38.907 95.7892C37.5479 96.2031 36.2116 96.6878 34.9034 97.2413L47.6727 100.657C47.7625 100.681 47.839 100.74 47.8854 100.82C47.9318 100.901 47.9443 100.996 47.9201 101.086C47.896 101.175 47.8372 101.251 47.7566 101.298C47.6761 101.344 47.5804 101.356 47.4906 101.332L33.9804 97.7178C33.9505 97.7095 33.9217 97.6976 33.8947 97.6824C31.3269 98.8433 28.5495 100.397 25.644 102.47L26.2791 102.66C32.6907 104.585 32.941 104.66 37.8629 106.868C37.9049 106.887 37.9427 106.914 37.9743 106.947C38.0059 106.98 38.0305 107.02 38.0469 107.062C38.0633 107.105 38.071 107.151 38.0697 107.197C38.0683 107.243 38.0579 107.288 38.0391 107.33C38.0203 107.372 37.9934 107.409 37.9599 107.441C37.9264 107.472 37.8871 107.497 37.8441 107.513C37.8011 107.53 37.7553 107.537 37.7093 107.536C37.6633 107.535 37.618 107.524 37.576 107.505L26.0774 103.329L25.0438 103.019C25.0101 103.009 24.9781 102.994 24.9491 102.974C21.1799 105.753 17.2075 109.409 13.2039 114.218C13.1774 113.882 13.1531 113.546 13.1309 113.208C14.4624 111.635 15.8208 110.151 17.2059 108.756L19.189 97.5157C19.211 97.4305 19.2644 97.3567 19.3385 97.3091C19.4127 97.2615 19.5022 97.2435 19.589 97.2588C19.6759 97.274 19.7538 97.3214 19.8072 97.3914C19.8606 97.4615 19.8855 97.549 19.877 97.6365L18.0723 107.867C21.0328 105.008 24.0701 102.55 27.1952 100.524C27.2407 100.495 27.2947 100.468 27.3407 100.438C27.2993 100.372 27.2807 100.293 27.2878 100.215L28.4521 93.6052C28.4741 93.52 28.5275 93.4462 28.6017 93.3986C28.6758 93.351 28.7653 93.333 28.8522 93.3482C28.939 93.3635 29.017 93.4109 29.0703 93.4809C29.1237 93.5509 29.1486 93.6385 29.1401 93.726L28.0361 99.9804C31.5502 97.817 35.1357 96.1812 38.7631 95.0942L41.7474 90.95C41.8014 90.8745 41.8832 90.8236 41.9749 90.8083C42.0665 90.793 42.1605 90.8146 42.2362 90.8684C42.3118 90.9222 42.3629 91.0038 42.3783 91.0952C42.3936 91.1866 42.3719 91.2803 42.3179 91.3557L39.8607 94.7908C40.2675 94.6811 40.6754 94.5785 41.0843 94.4832C45.279 93.5039 48.7327 93.4643 50.8915 93.6025C53.2423 93.754 54.585 94.1355 54.6411 94.1513C54.6858 94.1635 54.7276 94.1844 54.7642 94.2128C54.8007 94.2412 54.8312 94.2765 54.854 94.3167C54.8768 94.357 54.8914 94.4013 54.8969 94.4472C54.9024 94.493 54.8987 94.5395 54.8861 94.584Z" fill="url(#paint14_linear_140_8553)"/>
<path opacity="0.11" d="M19.3229 127.748L15.5198 128.259C14.3468 123.655 13.5716 118.959 13.2028 114.223C13.1764 113.888 13.152 113.551 13.1298 113.214C13.0091 111.38 12.9485 109.53 12.9478 107.664C12.9468 104.024 13.1828 100.388 13.6543 96.7791L16.5793 94.537C16.5793 94.537 13.2992 111.611 19.3229 127.748Z" fill="black"/>
<path d="M44.9101 30.9623C46.3423 30.9623 47.5034 29.8047 47.5034 28.3768C47.5034 26.9488 46.3423 25.7912 44.9101 25.7912C43.4779 25.7912 42.3169 26.9488 42.3169 28.3768C42.3169 29.8047 43.4779 30.9623 44.9101 30.9623Z" fill="url(#paint15_linear_140_8553)"/>
<path d="M4.5535 64.897C7.06833 64.897 9.10701 62.8644 9.10701 60.357C9.10701 57.8496 7.06833 55.8169 4.5535 55.8169C2.03867 55.8169 0 57.8496 0 60.357C0 62.8644 2.03867 64.897 4.5535 64.897Z" fill="url(#paint16_linear_140_8553)"/>
<path d="M134.626 59.5159C136.675 59.5159 138.336 57.8598 138.336 55.817C138.336 53.7741 136.675 52.118 134.626 52.118C132.577 52.118 130.917 53.7741 130.917 55.817C130.917 57.8598 132.577 59.5159 134.626 59.5159Z" fill="url(#paint17_linear_140_8553)"/>
<path d="M122.204 50.3789C123.217 50.1405 123.845 49.1282 123.605 48.1179C123.366 47.1076 122.351 46.4819 121.338 46.7204C120.324 46.9588 119.697 47.9711 119.936 48.9814C120.175 49.9917 121.19 50.6174 122.204 50.3789Z" fill="url(#paint18_linear_140_8553)"/>
<path d="M184.578 142.04C187.041 139.585 187.041 135.603 184.578 133.147C182.115 130.691 178.121 130.691 175.658 133.147C173.195 135.603 173.195 139.585 175.658 142.04C178.121 144.496 182.115 144.496 184.578 142.04Z" fill="url(#paint19_linear_140_8553)"/>
<path d="M162.813 38.0146C164.553 38.0146 165.963 36.6085 165.963 34.8739C165.963 33.1394 164.553 31.7333 162.813 31.7333C161.073 31.7333 159.663 33.1394 159.663 34.8739C159.663 36.6085 161.073 38.0146 162.813 38.0146Z" fill="url(#paint20_linear_140_8553)"/>
<path opacity="0.11" d="M47.6223 40.0746C37.8875 47.0892 29.7749 56.1039 23.8318 66.5106L21.8027 63.6776C28.6981 52.7517 34.9187 46.2757 39.3134 42.571C39.839 42.9741 40.4818 43.1957 41.1449 43.2024C41.8079 43.2091 42.4552 43.0006 42.9889 42.6082C43.5225 42.2158 43.9137 41.661 44.1032 41.0274C44.2927 40.3939 44.2703 39.716 44.0394 39.0963C45.2429 38.3576 45.9081 38.0779 45.9081 38.0779L47.6223 40.0746Z" fill="black"/>
<path opacity="0.11" d="M143.241 133.593L139.731 130.094C153.03 114.223 152.591 90.7795 138.408 75.4097L141.614 72.0986C141.614 72.0986 142.365 72.793 143.507 74.1069C142.895 74.9102 142.555 75.8875 142.538 76.8966C142.521 77.9057 142.827 78.894 143.412 79.7177C143.997 80.5413 144.83 81.1574 145.79 81.4764C146.751 81.7953 147.788 81.8004 148.752 81.491C154.912 92.1551 160.388 111.033 143.241 133.593Z" fill="black"/>
<path opacity="0.28" d="M158.032 141.552L155.862 143.761L152.051 147.643L142.944 138.562L146.47 135.047C147.143 134.383 148.053 134.013 149 134.016C149.947 134.018 150.855 134.395 151.524 135.063L158.032 141.552Z" fill="url(#paint21_linear_140_8553)"/>
<path opacity="0.44" d="M152.05 147.643L145.918 153.676L138.948 146.631C138.483 145.943 138.273 145.115 138.353 144.29C138.433 143.464 138.799 142.692 139.387 142.106L142.943 138.561L152.05 147.643Z" fill="url(#paint22_linear_140_8553)"/>
<path d="M138.41 75.4097C138.013 74.9784 137.605 74.554 137.186 74.1364C120.919 57.9181 94.5466 57.9181 78.2796 74.1364C62.0126 90.3547 62.0132 116.65 78.2796 132.869C94.5461 149.087 120.92 149.087 137.186 132.869C138.083 131.974 138.932 131.049 139.731 130.094C153.031 114.223 152.59 90.7795 138.41 75.4097ZM131.265 126.966C118.268 139.924 97.1959 139.924 84.1996 126.966C71.2033 114.008 71.2022 92.9973 84.1996 80.0394C97.197 67.0815 118.268 67.081 131.266 80.0394C144.263 92.9978 144.263 114.007 131.266 126.966H131.265Z" fill="url(#paint23_radial_140_8553)"/>
<path opacity="0.26" d="M138.41 75.4862C138.013 75.0549 137.605 74.6307 137.186 74.2135C120.919 57.9946 94.5466 57.9946 78.2796 74.2135C62.0126 90.4323 62.0132 116.727 78.2796 132.945C94.5461 149.164 120.919 149.164 137.186 132.945C138.083 132.05 138.932 131.125 139.731 130.171C153.031 114.299 152.59 90.8565 138.41 75.4862ZM131.265 127.043C118.268 140.001 97.1959 140.001 84.1996 127.043C71.2033 114.085 71.2022 93.0743 84.1996 80.1159C97.197 67.1575 118.268 67.1581 131.266 80.1159C144.263 93.0738 144.263 114.084 131.266 127.043H131.265Z" fill="url(#paint24_radial_140_8553)"/>
<path d="M11.8243 146.646C12.7195 146.462 13.2957 145.589 13.1113 144.697C12.9269 143.804 12.0517 143.23 11.1565 143.413C10.2613 143.597 9.68514 144.47 9.86954 145.362C10.0539 146.255 10.9291 146.829 11.8243 146.646Z" fill="url(#paint25_linear_140_8553)"/>
<path d="M11.3158 169.442C13.7434 167.022 13.7434 163.098 11.3158 160.677C8.88813 158.257 4.95216 158.257 2.52453 160.677C0.0968924 163.098 0.0968912 167.022 2.52453 169.442C4.95216 171.863 8.88813 171.863 11.3158 169.442Z" fill="url(#paint26_linear_140_8553)"/>
<path opacity="0.28" d="M183.568 178.918L152.061 147.504L158.105 141.477L183.544 166.84C185.149 168.441 186.053 170.61 186.058 172.874C186.062 175.138 185.167 177.311 183.568 178.918V178.918Z" fill="url(#paint27_linear_140_8553)"/>
<path opacity="0.58" d="M183.557 179.057L152.05 147.643L145.918 153.676L171.444 179.033C173.05 180.634 175.226 181.535 177.496 181.539C179.766 181.544 181.946 180.651 183.557 179.057V179.057Z" fill="url(#paint28_linear_140_8553)"/>
</g>
<defs>
<linearGradient id="paint0_linear_140_8553" x1="-5.26376" y1="36.354" x2="96.3223" y2="-37.7458" gradientUnits="userSpaceOnUse">
<stop stop-color="#36ABAE"/>
<stop offset="1" stop-color="#55FFC4"/>
</linearGradient>
<linearGradient id="paint1_linear_140_8553" x1="-119.448" y1="3566.06" x2="5683.11" y2="-666.524" gradientUnits="userSpaceOnUse">
<stop stop-color="#36ABAE"/>
<stop offset="1" stop-color="#55FFC4"/>
</linearGradient>
<linearGradient id="paint2_linear_140_8553" x1="38083.8" y1="91136.5" x2="7077.39" y2="56832.9" gradientUnits="userSpaceOnUse">
<stop stop-color="#36ABAE"/>
<stop offset="1" stop-color="#55FFC4"/>
</linearGradient>
<linearGradient id="paint3_linear_140_8553" x1="34.2548" y1="53.9743" x2="9.6784" y2="17.0006" gradientUnits="userSpaceOnUse">
<stop stop-color="#3695AE"/>
<stop offset="1" stop-color="#55FFC4"/>
</linearGradient>
<linearGradient id="paint4_linear_140_8553" x1="158.05" y1="168.997" x2="24.9647" y2="35.5174" gradientUnits="userSpaceOnUse">
<stop stop-color="#DFDBDB"/>
<stop offset="0.31" stop-color="#F9F8F8"/>
<stop offset="0.41" stop-color="#F2F0F0"/>
<stop offset="0.65" stop-color="#E3DFDF"/>
<stop offset="1" stop-color="white"/>
</linearGradient>
<linearGradient id="paint5_linear_140_8553" x1="63.4784" y1="190.28" x2="63.4784" y2="103.947" gradientUnits="userSpaceOnUse">
<stop stop-color="white"/>
<stop offset="0.34" stop-color="#9EC7DB"/>
<stop offset="0.66" stop-color="#4996BC"/>
<stop offset="0.89" stop-color="#1478A9"/>
<stop offset="1" stop-color="#006CA1"/>
</linearGradient>
<linearGradient id="paint6_linear_140_8553" x1="1598.13" y1="139796" x2="1598.13" y2="85432.7" gradientUnits="userSpaceOnUse">
<stop stop-color="white"/>
<stop offset="0.34" stop-color="#9EC7DB"/>
<stop offset="0.66" stop-color="#4996BC"/>
<stop offset="0.89" stop-color="#1478A9"/>
<stop offset="1" stop-color="#006CA1"/>
</linearGradient>
<linearGradient id="paint7_linear_140_8553" x1="1926.07" y1="177070" x2="1926.07" y2="108195" gradientUnits="userSpaceOnUse">
<stop stop-color="white"/>
<stop offset="0.34" stop-color="#9EC7DB"/>
<stop offset="0.66" stop-color="#4996BC"/>
<stop offset="0.89" stop-color="#1478A9"/>
<stop offset="1" stop-color="#006CA1"/>
</linearGradient>
<linearGradient id="paint8_linear_140_8553" x1="2291.1" y1="160335" x2="2291.1" y2="97975.5" gradientUnits="userSpaceOnUse">
<stop stop-color="white"/>
<stop offset="0.34" stop-color="#9EC7DB"/>
<stop offset="0.66" stop-color="#4996BC"/>
<stop offset="0.89" stop-color="#1478A9"/>
<stop offset="1" stop-color="#006CA1"/>
</linearGradient>
<linearGradient id="paint9_linear_140_8553" x1="2711.85" y1="216913" x2="2711.85" y2="132525" gradientUnits="userSpaceOnUse">
<stop stop-color="white"/>
<stop offset="0.34" stop-color="#9EC7DB"/>
<stop offset="0.66" stop-color="#4996BC"/>
<stop offset="0.89" stop-color="#1478A9"/>
<stop offset="1" stop-color="#006CA1"/>
</linearGradient>
<linearGradient id="paint10_linear_140_8553" x1="124.617" y1="157.91" x2="189.208" y2="33.591" gradientUnits="userSpaceOnUse">
<stop stop-color="#A789FF"/>
<stop offset="1" stop-color="#DAECD7"/>
</linearGradient>
<linearGradient id="paint11_linear_140_8553" x1="140.711" y1="117.828" x2="195.341" y2="43.8592" gradientUnits="userSpaceOnUse">
<stop stop-color="#9870E6"/>
<stop offset="1" stop-color="#DAECD7"/>
</linearGradient>
<radialGradient id="paint12_radial_140_8553" cx="0" cy="0" r="1" gradientUnits="userSpaceOnUse" gradientTransform="translate(135740 115076) scale(81323.3 81082.2)">
<stop stop-color="white"/>
<stop offset="0.34" stop-color="#9EC7DB"/>
<stop offset="0.66" stop-color="#4996BC"/>
<stop offset="0.89" stop-color="#1478A9"/>
<stop offset="1" stop-color="#006CA1"/>
</radialGradient>
<linearGradient id="paint13_linear_140_8553" x1="37421.5" y1="104091" x2="29670" y2="80481.5" gradientUnits="userSpaceOnUse">
<stop stop-color="#36ABAE"/>
<stop offset="1" stop-color="#55FFC4"/>
</linearGradient>
<linearGradient id="paint14_linear_140_8553" x1="39014.9" y1="53493.7" x2="33621.3" y2="41148.2" gradientUnits="userSpaceOnUse">
<stop stop-color="#9870E6"/>
<stop offset="1" stop-color="#DAECD7"/>
</linearGradient>
<linearGradient id="paint15_linear_140_8553" x1="-722.841" y1="6552.99" x2="9232.54" y2="-708.785" gradientUnits="userSpaceOnUse">
<stop stop-color="#36ABAE"/>
<stop offset="1" stop-color="#55FFC4"/>
</linearGradient>
<linearGradient id="paint16_linear_140_8553" x1="1449.29" y1="11461.4" x2="-195.221" y2="8928.31" gradientUnits="userSpaceOnUse">
<stop stop-color="#36ABAE"/>
<stop offset="1" stop-color="#55FFC4"/>
</linearGradient>
<linearGradient id="paint17_linear_140_8553" x1="19589.1" y1="8482.72" x2="18391.4" y2="7233.45" gradientUnits="userSpaceOnUse">
<stop stop-color="#A789FF"/>
<stop offset="1" stop-color="#DAECD7"/>
</linearGradient>
<linearGradient id="paint18_linear_140_8553" x1="9702.52" y1="4393.45" x2="9288.88" y2="3905.36" gradientUnits="userSpaceOnUse">
<stop stop-color="#A789FF"/>
<stop offset="1" stop-color="#DAECD7"/>
</linearGradient>
<linearGradient id="paint19_linear_140_8553" x1="48243.5" y1="36713.2" x2="42940.4" y2="33849.2" gradientUnits="userSpaceOnUse">
<stop stop-color="#A789FF"/>
<stop offset="1" stop-color="#DAECD7"/>
</linearGradient>
<linearGradient id="paint20_linear_140_8553" x1="20133.5" y1="4602.34" x2="18871.2" y2="3703.84" gradientUnits="userSpaceOnUse">
<stop stop-color="#A789FF"/>
<stop offset="1" stop-color="#DAECD7"/>
</linearGradient>
<linearGradient id="paint21_linear_140_8553" x1="152.814" y1="137.801" x2="148.128" y2="142.5" gradientUnits="userSpaceOnUse">
<stop/>
<stop offset="1" stop-color="#3945FF"/>
</linearGradient>
<linearGradient id="paint22_linear_140_8553" x1="146.927" y1="143.67" x2="141.666" y2="148.947" gradientUnits="userSpaceOnUse">
<stop stop-color="#362EFF"/>
<stop offset="1" stop-color="white"/>
</linearGradient>
<radialGradient id="paint23_radial_140_8553" cx="0" cy="0" r="1" gradientUnits="userSpaceOnUse" gradientTransform="translate(107.497 103.296) scale(41.57 41.447)">
<stop/>
<stop offset="0.35" stop-color="#000102"/>
<stop offset="0.48" stop-color="#020309"/>
<stop offset="0.57" stop-color="#050714"/>
<stop offset="0.65" stop-color="#090C25"/>
<stop offset="0.71" stop-color="#0F133B"/>
<stop offset="0.77" stop-color="#161C57"/>
<stop offset="0.82" stop-color="#1E2677"/>
<stop offset="0.86" stop-color="#27329D"/>
<stop offset="0.91" stop-color="#3240C8"/>
<stop offset="0.95" stop-color="#4051FF"/>
</radialGradient>
<radialGradient id="paint24_radial_140_8553" cx="0" cy="0" r="1" gradientUnits="userSpaceOnUse" gradientTransform="translate(107.496 103.372) scale(41.57 41.447)">
<stop stop-color="#403DFF"/>
<stop offset="0.39" stop-color="#423FFF"/>
<stop offset="0.54" stop-color="#4946FF"/>
<stop offset="0.64" stop-color="#5451FF"/>
<stop offset="0.72" stop-color="#6562FF"/>
<stop offset="0.79" stop-color="#7B78FF"/>
<stop offset="0.85" stop-color="#9594FF"/>
<stop offset="0.91" stop-color="#B5B4FF"/>
<stop offset="0.96" stop-color="#D9D8FF"/>
<stop offset="1" stop-color="white"/>
</radialGradient>
<linearGradient id="paint25_linear_140_8553" x1="1291.05" y1="9841.13" x2="1498.02" y2="9841.13" gradientUnits="userSpaceOnUse">
<stop stop-color="#36ABAE"/>
<stop offset="1" stop-color="#55FFC4"/>
</linearGradient>
<linearGradient id="paint26_linear_140_8553" x1="2670.24" y1="41291.8" x2="5590.81" y2="41291.8" gradientUnits="userSpaceOnUse">
<stop stop-color="#36ABAE"/>
<stop offset="1" stop-color="#55FFC4"/>
</linearGradient>
<linearGradient id="paint27_linear_140_8553" x1="173.294" y1="157.748" x2="168.073" y2="162.984" gradientUnits="userSpaceOnUse">
<stop/>
<stop offset="1" stop-color="#FFC700"/>
</linearGradient>
<linearGradient id="paint28_linear_140_8553" x1="162.262" y1="168.835" x2="167.522" y2="163.558" gradientUnits="userSpaceOnUse">
<stop stop-color="white"/>
<stop offset="1" stop-color="#FFC700"/>
</linearGradient>
<clipPath id="clip0_140_8553">
<rect width="191" height="191" fill="white"/>
</clipPath>
</defs>
</svg>
