<svg width="18" height="18" viewBox="0 0 18 18" fill="none" xmlns="http://www.w3.org/2000/svg">
<path d="M13.1987 11.6083H12.364L12.0687 11.3234C13.3357 9.84578 13.9905 7.83003 13.631 5.68844C13.1353 2.75464 10.6853 0.41203 7.72919 0.0535155C3.26301 -0.495732 -0.496015 3.26114 0.053546 7.72477C0.412265 10.6791 2.75621 13.1278 5.69169 13.6232C7.8345 13.9825 9.85141 13.328 11.3298 12.0617L11.6149 12.3569V13.1911L16.1017 17.6753C16.5348 18.1082 17.242 18.1082 17.6751 17.6753C18.1083 17.2432 18.1083 16.5357 17.6751 16.1035L13.1987 11.6083ZM6.86367 11.6083C4.23464 11.6083 2.11242 9.48725 2.11242 6.85973C2.11242 4.23221 4.23464 2.11119 6.86367 2.11119C9.49269 2.11119 11.6149 4.23221 11.6149 6.85973C11.6149 9.48725 9.49269 11.6083 6.86367 11.6083Z" fill="#7A7175"/>
</svg>