<svg width="18" height="20" viewBox="0 0 18 20" fill="none" xmlns="http://www.w3.org/2000/svg">
<path d="M12.9115 9.00001H5.08554C4.5475 9.00001 4.1073 9.45002 4.1073 10C4.1073 10.55 4.5475 11 5.08554 11H12.9115C13.4495 11 13.8897 10.55 13.8897 10C13.8897 9.45002 13.4495 9.00001 12.9115 9.00001ZM15.8462 2H14.8679V1C14.8679 0.450001 14.4277 0 13.8897 0C13.3517 0 12.9115 0.450001 12.9115 1V2H5.08554V1C5.08554 0.450001 4.64533 0 4.1073 0C3.56926 0 3.12906 0.450001 3.12906 1V2H2.15082C1.06497 2 0.194336 2.9 0.194336 4.00001V18C0.194336 19.1 1.06497 20 2.15082 20H15.8462C16.9222 20 17.8027 19.1 17.8027 18V4.00001C17.8027 2.9 16.9222 2 15.8462 2ZM14.8679 18H3.12906C2.59102 18 2.15082 17.55 2.15082 17V7.00001H15.8462V17C15.8462 17.55 15.406 18 14.8679 18ZM9.97674 13H5.08554C4.5475 13 4.1073 13.45 4.1073 14C4.1073 14.55 4.5475 15 5.08554 15H9.97674C10.5148 15 10.955 14.55 10.955 14C10.955 13.45 10.5148 13 9.97674 13Z" fill="#E4E3E3"/>
</svg>